{"title":"nobel chor 2012 bengali movie 491 mb avi","uid":7153039,"size":514965762,"categoryP":"video","categoryS":"movies","magnet":"?xt=urn:btih:c83370c6a2fecd14e218cab3d9eea40b38ac311c&amp;dn=nobel+chor+2012+bengali+movie+491+mb+avi&amp;tr=udp%3A%2F%2Ftracker.openbittorrent.com%3A80&amp;tr=udp%3A%2F%2Fopen.demonii.com%3A1337&amp;tr=udp%3A%2F%2Ftracker.coppersurfer.tk%3A6969&amp;tr=udp%3A%2F%2Fexodus.desync.com%3A6969","seeders":1,"leechers":0,"uploader":"Moon555","files":1,"time":1333325045,"description":"NOBEL.CHOR.DVDSCR.@\n      Format : AVI\n      Format/Info : Audio Video Interleave\n      File size : 491 MiB\n      Duration : 1h 35mn\n      Overall bit rate : 716 Kbps\n      Writing application : Lavf52.94.0\n   Video #0\n      ID : 0\n      Format : AVC\n      Format/Info : Advanced Video Codec\n      Format profile : &lt;a class=&quot;__cf_email__&quot; href=&quot;/cdn-cgi/l/email-protection&quot; data-cfemail=&quot;bff2ded6d1fff38c918f&quot;&gt;[email&amp;#160;protected]&lt;/a&gt;&lt;script cf-hash='f9e31' type=&quot;text/javascript&quot;&gt;\n/* &lt;![CDATA[ */!function(){try{var t=&quot;currentScript&quot;in document?document.currentScript:function(){for(var t=document.getElementsByTagName(&quot;script&quot;),e=t.length;e--;)if(t[e].getAttribute(&quot;cf-hash&quot;))return t[e]}();if(t&amp;&amp;t.previousSibling){var e,r,n,i,c=t.previousSibling,a=c.getAttribute(&quot;data-cfemail&quot;);if(a){for(e=&quot;&quot;,r=parseInt(a.substr(0,2),16),n=2;a.length-n;n+=2)i=parseInt(a.substr(n,2),16)^r,e+=String.fromCharCode(i);e=document.createTextNode(e),c.parentNode.replaceChild(e,c)}}}catch(u){}}();/* ]]&gt; */&lt;/script&gt;\n      Format settings, CABAC : Yes\n      Format settings, ReFrames : 2 frames\n      Codec ID : H264\n      Duration : 1h 35mn\n      Bit rate : 611 Kbps\n      Width : 720 pixels\n      Height : 404 pixels\n      Display aspect ratio : 16:9\n      Frame rate mode : Variable\n      Frame rate : 29.970 fps\n      Resolution : 24 bits\n      Colorimetry : 4:2:0\n      Scan type : Progressive\n      Bits/(Pixel*Frame) : 0.070\n      Stream size : 417 MiB (85%)\n      Writing library : x264 core 112 r1834 a51816a\n      Encoding settings : cabac=1 / ref=1 / deblock=1:0:0 / analyse=0x1:0 / me=dia / subme=2 / psy=1 / psy_rd=0.00:0.00 / mixed_ref=0 / me_range=16 / chroma_me=1 / trellis=0 / 8x8dct=0 / cqm=0 / deadzone=21,11 / fast_pskip=1 / chroma_qp_offset=0 / threads=2 / sliced_threads=0 / nr=0 / decimate=1 / interlaced=0 / constrained_intra=0 / bframes=3 / b_pyramid=0 / b_adapt=1 / b_bias=0 / direct=3 / weightb=0 / open_gop=0 / weightp=2 / keyint=250 / keyint_min=25 / scenecut=40 / intra_refresh=0 / rc_lookahead=40 / rc=abr / mbtree=1 / bitrate=611 / ratetol=1.0 / qcomp=0.60 / qpmin=10 / qpmax=51 / qpstep=4 / ip_ratio=1.41 / aq=1:1.00\n   Audio #1\n      ID : 1\n      Format : AC-3\n      Format/Info : Audio Coding 3\n      Codec ID : 2000\n      Duration : 1h 35mn\n      Bit rate mode : Constant\n      Bit rate : 96.0 Kbps\n      Channel(s) : 2 channels\n      Channel positions : L R\n      Sampling rate : 44.1 KHz\n      Resolution : 16 bits\n      Stream size : 65.9 MiB (13%)\n      Alignment : Aligned on interleaves\n      Interleave, duration : 35 ms (1.04 video frame)\n\nimdb link http://www.imdb.com/title/tt2002742/","torrent":{"xt":"urn:btih:c83370c6a2fecd14e218cab3d9eea40b38ac311c","amp;dn":"nobel+chor+2012+bengali+movie+491+mb+avi","amp;tr":["udp%3A%2F%2Ftracker.openbittorrent.com%3A80","udp%3A%2F%2Fopen.demonii.com%3A1337","udp%3A%2F%2Ftracker.coppersurfer.tk%3A6969","udp%3A%2F%2Fexodus.desync.com%3A6969"],"infoHash":"c83370c6a2fecd14e218cab3d9eea40b38ac311c","infoHashBuffer":{"type":"Buffer","data":[200,51,112,198,162,254,205,20,226,24,202,179,217,238,164,11,56,172,49,28]},"announce":[],"urlList":[]}}